<?xml version="1.0" standalone="no"?>
<svg xmlns:xlink="http://www.w3.org/1999/xlink" id="wave" style="transform:rotate(0deg); transition: 0.3s" viewBox="0 0 1440 490" version="1.1" xmlns="http://www.w3.org/2000/svg"><defs><linearGradient id="sw-gradient-0" x1="0" x2="0" y1="1" y2="0"><stop stop-color="rgba(6, 182, 212, 1)" offset="0%"/><stop stop-color="rgba(132, 204, 22, 1)" offset="100%"/></linearGradient></defs><path style="transform:translate(0, 0px); opacity:1" fill="url(#sw-gradient-0)" d="M0,441L26.7,416.5C53.3,392,107,343,160,343C213.3,343,267,392,320,351.2C373.3,310,427,180,480,155.2C533.3,131,587,212,640,212.3C693.3,212,747,131,800,155.2C853.3,180,907,310,960,367.5C1013.3,425,1067,408,1120,375.7C1173.3,343,1227,294,1280,228.7C1333.3,163,1387,82,1440,49C1493.3,16,1547,33,1600,106.2C1653.3,180,1707,310,1760,318.5C1813.3,327,1867,212,1920,212.3C1973.3,212,2027,327,2080,318.5C2133.3,310,2187,180,2240,130.7C2293.3,82,2347,114,2400,147C2453.3,180,2507,212,2560,236.8C2613.3,261,2667,278,2720,310.3C2773.3,343,2827,392,2880,416.5C2933.3,441,2987,441,3040,424.7C3093.3,408,3147,376,3200,334.8C3253.3,294,3307,245,3360,253.2C3413.3,261,3467,327,3520,343C3573.3,359,3627,327,3680,285.8C3733.3,245,3787,196,3813,171.5L3840,147L3840,490L3813.3,490C3786.7,490,3733,490,3680,490C3626.7,490,3573,490,3520,490C3466.7,490,3413,490,3360,490C3306.7,490,3253,490,3200,490C3146.7,490,3093,490,3040,490C2986.7,490,2933,490,2880,490C2826.7,490,2773,490,2720,490C2666.7,490,2613,490,2560,490C2506.7,490,2453,490,2400,490C2346.7,490,2293,490,2240,490C2186.7,490,2133,490,2080,490C2026.7,490,1973,490,1920,490C1866.7,490,1813,490,1760,490C1706.7,490,1653,490,1600,490C1546.7,490,1493,490,1440,490C1386.7,490,1333,490,1280,490C1226.7,490,1173,490,1120,490C1066.7,490,1013,490,960,490C906.7,490,853,490,800,490C746.7,490,693,490,640,490C586.7,490,533,490,480,490C426.7,490,373,490,320,490C266.7,490,213,490,160,490C106.7,490,53,490,27,490L0,490Z"/></svg>